<svg version="1.1" xmlns="http://www.w3.org/2000/svg" style="display: block;" viewBox="0 0 2048 2048" width="736" height="736" preserveAspectRatio="none">
<path transform="translate(0,0)" fill="rgb(230,76,75)" d="M 0 0 L 2048 0 L 2048 2048 L 0 2048 L 0 0 z"/>
<path transform="translate(0,0)" fill="rgb(0,0,0)" d="M 1006.58 170.428 C 1027.65 168.787 1046.53 170.073 1067.67 171.694 C 1132.02 176.627 1194.53 193.889 1253.19 220.627 C 1265.56 226.267 1282.1 237.118 1294.22 240.868 C 1301.26 243.048 1327.86 244.307 1336.56 245.418 C 1362.23 248.782 1387.69 253.543 1412.84 259.68 C 1446.14 267.287 1478.56 278.368 1509.56 292.741 C 1519.09 297.176 1546.02 312.175 1552.63 314.099 C 1570.15 319.197 1594.88 321.392 1614.23 326.045 C 1680.61 342.002 1755.5 372.144 1808.92 415.565 C 1882.22 474.633 1928.85 560.567 1938.4 654.217 C 1948.1 748.564 1927.55 840.74 1865.35 914.982 C 1761.83 1038.52 1591.9 1136.56 1440.77 1189.53 C 1361.5 1217.31 1271.19 1233.02 1188.89 1241.43 C 1161.24 1269.99 1134.08 1300.25 1106.68 1329.13 C 1104.01 1331.95 1098.89 1339.16 1101.25 1343.04 C 1104.5 1344 1107.56 1344.16 1110.95 1343.76 C 1162.58 1337.67 1214 1329.98 1265.63 1323.84 C 1279.18 1322.23 1293.14 1320.74 1306.53 1318.17 C 1287.5 1332.05 1259.48 1348.89 1239.13 1362.05 L 1124.34 1437.22 L 708.451 1711.68 L 545.359 1819.64 C 524.812 1833.1 504.498 1847.53 483.47 1860.11 C 489.469 1852.01 503.526 1825.7 509.212 1815.76 L 572.919 1702.14 L 676.267 1520.47 L 713.203 1455.84 C 721.638 1441.05 731.304 1428.78 733.779 1411.89 C 711.582 1414.61 689.026 1425.9 667.771 1434.13 L 600.887 1459.4 C 607.736 1446.08 612.985 1433.33 619.361 1419.94 C 639.273 1378.14 658.65 1336.09 677.489 1293.8 L 706.459 1230.5 C 712.502 1217.39 725.96 1191.93 726.523 1178.26 C 722.627 1174.09 602.557 1149.95 588.345 1146.93 C 528.176 1133.76 467.938 1120.91 407.634 1108.37 C 393.135 1105.51 378.633 1104.5 364.134 1102.14 C 275.552 1087.72 191.017 1043.97 145.669 963.564 C 115.696 910.418 103.723 846.138 120.031 786.48 C 133.784 735.245 165.863 690.839 210.184 661.686 C 221.869 654.055 237.779 646.752 250.546 639.451 C 268.532 576.487 293.284 526.147 340.389 479 C 382.501 436.773 437.379 409.634 496.499 401.798 C 521.238 398.604 542.613 398.887 567.322 398.886 C 586.154 377.349 602.432 358.169 623.288 338.288 C 707.793 258.422 812.889 203.692 926.775 180.244 C 954.949 174.715 978.166 172.807 1006.58 170.428 z"/>
<path transform="translate(0,0)" fill="rgb(254,254,254)" d="M 591.682 461.137 C 662.972 365.284 748.662 297.461 862.004 257.141 C 971.748 217.766 1091.93 218.788 1200.99 260.025 C 1216.09 265.647 1230.89 272.065 1245.31 279.253 C 1252.49 282.886 1277.22 298.127 1282.62 298.404 C 1412.44 304.942 1574.9 348.768 1623.51 485.438 C 1644.62 544.768 1639.55 619.408 1612.5 676.069 C 1598.43 695.469 1581.57 714.03 1565.12 731.414 C 1560.01 736.812 1533.91 759.677 1531.69 763.167 C 1529.68 775.839 1485.45 793.803 1498.16 807.845 C 1502.93 813.118 1513.65 825.622 1518.73 831.691 C 1522.78 827.347 1547.31 809.539 1552.85 808.321 C 1542.74 817.627 1523.41 830.859 1511.86 838.626 C 1452.63 878.483 1389.68 912.388 1320.92 932.25 C 1388.53 874.607 1466.35 802.744 1473.71 709.281 C 1486.78 543.317 1305.52 480.557 1172.19 472.781 C 966.989 460.813 745.531 511.604 583.959 642.526 C 533.977 683.335 482.124 750.805 477.827 815.968 C 470.084 933.403 597.218 998.199 693.418 1023.25 C 681.409 1025.63 602.704 1041.34 594.24 1040.83 C 494.961 1056.5 369.477 1060.97 275.929 1013.11 C 170.243 959.04 127.83 807.804 223.721 723.547 C 247.465 702.684 270.31 693.807 300.644 685.161 C 312.802 590.839 372.807 494.654 467.761 467.425 C 512.335 454.644 546.984 456.78 591.682 461.137 z"/>
<path transform="translate(0,0)" fill="rgb(103,112,117)" d="M 701.04 431.587 C 883.609 262.839 1186.7 271.772 1376.38 425.151 C 1388.55 434.996 1398.9 446.416 1410.14 457.274 C 1389.91 420.411 1353.71 370.953 1320.09 346.199 C 1334.9 349.329 1352.35 350.538 1367.84 353.551 C 1414.56 362.636 1464.52 379.286 1502.31 408.621 C 1544.97 441.149 1572.52 489.679 1578.57 542.987 C 1590.55 641.362 1552.14 721.297 1493.41 795.912 C 1506.33 785.672 1518.63 773.122 1531.69 763.167 C 1529.68 775.839 1485.45 793.803 1498.16 807.845 C 1502.93 813.118 1513.65 825.622 1518.73 831.691 C 1522.78 827.347 1547.31 809.539 1552.85 808.321 C 1542.74 817.627 1523.41 830.859 1511.86 838.626 C 1452.63 878.483 1389.68 912.388 1320.92 932.25 C 1388.53 874.607 1466.35 802.744 1473.71 709.281 C 1486.78 543.317 1305.52 480.557 1172.19 472.781 C 966.989 460.813 745.531 511.604 583.959 642.526 C 533.977 683.335 482.124 750.805 477.827 815.968 C 470.084 933.403 597.218 998.199 693.418 1023.25 C 681.409 1025.63 602.704 1041.34 594.24 1040.83 C 589.893 1038.3 559.852 1035.59 552.289 1034.51 C 425.366 1016.38 296.599 939.14 318.028 792.453 C 337.76 863.116 374.442 891.264 438.097 920.4 C 414.043 889.996 396.758 847.055 397.273 808.039 C 398.12 743.975 439.817 682.544 485.151 639.554 C 625.073 506.866 846.85 438.589 1036.17 441.436 C 963.732 411.497 887.258 404.899 809.662 411.701 C 771.68 415.031 738.172 422.718 701.04 431.587 z"/>
<path transform="translate(0,0)" fill="rgb(43,133,172)" d="M 917.193 601.424 C 943.365 590.535 1003.78 579.716 1032.43 577.502 C 1018.82 583.407 996.848 587.502 981.83 592.437 C 933.681 607.787 886.181 627.829 847.439 661 C 833.007 673.357 807.383 699.286 816.166 719.782 C 829.075 746.505 878.297 747.237 903.363 748.027 C 978.118 750.382 1057.85 733.449 1128.32 765.793 C 1186.29 792.4 1192.87 844.309 1172.58 899.139 C 1157.94 938.681 1135.63 968.145 1111.37 1001.98 C 1085.7 1039.55 1056.44 1077.28 1031.49 1115.04 C 1043.58 1109.69 1058.81 1105.4 1071.6 1101.52 C 1090.88 1095.74 1110.12 1089.85 1129.34 1083.86 L 1229.2 1052.48 C 1257.26 1043.37 1286.43 1033.07 1314.51 1024.57 C 1281.5 1058.61 1251.27 1092.45 1219.25 1127.37 L 1052.02 1310.82 C 1032.81 1331.57 1013.86 1352.56 995.163 1373.79 C 983.728 1386.84 969.457 1404.93 957.383 1416.23 C 987.499 1408.94 1023.13 1404.08 1053.88 1397.64 C 1066.25 1395.05 1082.11 1393.51 1093.99 1390.36 C 1052.37 1418.49 1012.27 1447.62 971.263 1476.43 L 763.812 1621.22 L 693.444 1670.6 C 688.475 1674.09 666.709 1689.83 662.041 1691.78 C 650.21 1702.73 622.79 1723.53 609.293 1733.55 C 629.03 1705.62 651.301 1666.07 669.534 1636.19 L 792.607 1434.02 C 815.554 1395.87 845.201 1343.29 869.764 1307.48 C 853.316 1314.91 829.518 1322.48 811.939 1328.7 C 774.759 1341.66 737.694 1354.94 700.748 1368.54 C 708.868 1353.67 717.436 1334.56 725.214 1319.06 C 747.317 1274.9 769.654 1230.85 792.223 1186.93 L 919.541 943.395 C 931.476 920.291 944.364 897.668 956.182 874.565 C 961.386 863.632 967.108 850.776 962.622 838.635 C 958.913 828.596 947.367 821.183 937.459 818.326 C 913.994 811.559 889.031 811.913 864.839 811.045 C 816.263 809.302 763.915 809.35 718.513 789.732 C 708.017 784.866 696.349 775.743 693.088 764.307 C 684.328 733.59 721.232 702.013 742.201 685.702 C 793.928 645.464 854.952 620.377 917.193 601.424 z"/>
<path transform="translate(0,0)" fill="rgb(254,254,254)" d="M 917.193 601.424 L 919.505 602.33 C 915.133 606.015 883.16 618.52 874.417 622.692 C 833.985 641.984 753.543 684.098 746.075 732.524 C 744.909 740.079 748.116 750.421 753.473 756.09 C 773.228 776.259 809.969 778.611 836.346 779.83 C 862.087 780.817 888.888 780.497 914.528 780.785 C 962.863 781.328 1044.26 775.824 1012.04 850.96 C 995.769 888.91 971.856 923.997 952.567 960.576 C 945.283 974.389 937.235 990.278 928.488 1003.07 C 950.04 987.348 971.94 972.112 994.173 957.371 C 1009.57 947.134 1028.74 935.107 1043.06 923.66 L 880.565 1171.11 L 840.121 1232.89 C 832.965 1243.86 821.824 1261.9 813.33 1271.26 L 971.462 1209.52 C 989.667 1202.41 1011.18 1195.39 1028.55 1188.1 C 998.271 1225.41 963.764 1274.49 935.29 1313.74 L 765.836 1549.33 L 684.465 1659.72 C 679.61 1666.42 663.871 1685.69 662.041 1691.78 C 650.21 1702.73 622.79 1723.53 609.293 1733.55 C 629.03 1705.62 651.301 1666.07 669.534 1636.19 L 792.607 1434.02 C 815.554 1395.87 845.201 1343.29 869.764 1307.48 C 853.316 1314.91 829.518 1322.48 811.939 1328.7 C 774.759 1341.66 737.694 1354.94 700.748 1368.54 C 708.868 1353.67 717.436 1334.56 725.214 1319.06 C 747.317 1274.9 769.654 1230.85 792.223 1186.93 L 919.541 943.395 C 931.476 920.291 944.364 897.668 956.182 874.565 C 961.386 863.632 967.108 850.776 962.622 838.635 C 958.913 828.596 947.367 821.183 937.459 818.326 C 913.994 811.559 889.031 811.913 864.839 811.045 C 816.263 809.302 763.915 809.35 718.513 789.732 C 708.017 784.866 696.349 775.743 693.088 764.307 C 684.328 733.59 721.232 702.013 742.201 685.702 C 793.928 645.464 854.952 620.377 917.193 601.424 z"/>
<path transform="translate(0,0)" fill="rgb(43,133,172)" d="M 1637.9 389.799 C 1731.58 420.466 1804.33 462.983 1852.03 553.809 C 1888.02 622.349 1895.32 717.935 1871.14 791.116 C 1828.45 920.274 1657.78 1028.06 1543.06 1085.39 C 1493.99 1109.41 1443.07 1129.45 1390.79 1145.32 C 1375.58 1150.05 1353.19 1157.02 1337.63 1158.89 C 1380.59 1141.56 1427.99 1122.69 1468.59 1101.18 C 1601.19 1030.95 1742.81 943.163 1803.96 799.26 C 1819.15 763.522 1824.85 733.757 1830.7 695.723 C 1804.51 747.968 1763.49 792.121 1718.09 828.545 C 1702.18 841.308 1685.12 852.008 1669.22 864.118 C 1697.69 829.648 1722.14 799.752 1742.08 759.852 C 1775.94 692.119 1785.21 615.461 1751.06 545.955 C 1746.25 536.167 1739.91 526.723 1735.34 516.875 C 1735.83 529.761 1733.52 543.125 1731.48 555.799 C 1720.32 625.258 1678.8 687.618 1631.77 738.402 C 1619.8 751.325 1566.48 800.63 1552.85 808.321 C 1547.31 809.539 1522.78 827.347 1518.73 831.691 C 1513.65 825.622 1502.93 813.118 1498.16 807.845 C 1485.45 793.803 1529.68 775.839 1531.69 763.167 C 1533.91 759.677 1560.01 736.812 1565.12 731.414 C 1581.57 714.03 1598.43 695.469 1612.5 676.069 C 1618.9 674.776 1639.93 646.211 1644.3 639.039 C 1695.87 554.585 1699.54 469.013 1637.9 389.799 z"/>
</svg>