<svg version="1.1" xmlns="http://www.w3.org/2000/svg" style="display: block;" viewBox="0 0 2048 2048" width="736" height="736" preserveAspectRatio="none">
<path transform="translate(0,0)" fill="rgb(0,0,0)" d="M 1005.29 167.427 C 1008.91 166.833 1017.25 166.797 1021.19 166.755 C 1094.63 166.243 1167.43 180.384 1235.34 208.349 C 1254.37 216.226 1277.45 228.868 1295.71 237.25 C 1299.61 239.04 1332.07 241.486 1338.75 242.301 C 1362.89 245.377 1386.86 249.668 1410.56 255.158 C 1445.35 263.105 1479.26 274.513 1511.78 289.213 C 1524.6 295.14 1546.39 308.863 1558.45 312.003 C 1577.25 316.897 1600.52 318.668 1620.08 323.553 C 1703.49 344.393 1782.83 379.743 1843.98 441.578 C 1909.95 508.296 1943.29 600.48 1944.02 693.496 C 1945.36 797.302 1911.04 879.067 1837.45 952.196 C 1692.51 1096.22 1482.63 1201.03 1280.88 1232.81 C 1254.39 1236.99 1219.39 1243.01 1193.14 1243.2 C 1185.55 1250.18 1165.59 1272.12 1158.06 1280.57 C 1141.47 1299.2 1116.31 1322.83 1101.83 1341.39 C 1154.63 1336.11 1208.59 1326.64 1261.46 1320.77 C 1281.59 1318.54 1305.52 1314.68 1325.53 1313.69 C 1312.77 1318.59 1286.83 1336.2 1273.91 1344.46 L 1162.96 1416.94 L 701.181 1721.17 C 695.264 1724.29 673.347 1739.61 666.64 1744.07 L 589.056 1795.87 L 514.524 1845.42 C 502.567 1853.29 479.693 1867.15 469.731 1876.36 C 487.456 1843.08 510.06 1805.93 528.933 1772.47 L 657.147 1545.8 L 703.839 1463.93 C 710.218 1452.85 726.922 1425.54 730.817 1414.88 C 714.246 1418.71 687.433 1430.9 670.778 1437.29 C 645.01 1447.17 617.522 1456.62 592.301 1467.34 C 597.843 1459.17 606.962 1437.79 611.613 1427.84 C 624.316 1400.89 636.813 1373.85 649.103 1346.71 L 696.42 1243.38 C 705.873 1222.71 716.452 1200.8 724.565 1179.76 C 620.961 1156.37 516.27 1135.54 412.5 1112.81 C 396.717 1109.35 382.168 1108.38 366.42 1105.89 C 341.256 1101.74 316.053 1095.72 291.944 1087.4 C 218.4 1062.03 154.065 1005.51 126.539 931.912 C 106.543 878.451 102.734 820.796 122.428 766.739 C 145.711 702.828 188.025 664.769 248.341 636.57 C 249.393 627.648 254.39 612.647 257.513 603.838 C 274.762 554.719 303.004 510.189 340.083 473.646 C 383.269 431.349 439.386 404.747 499.467 398.093 C 521.879 395.548 542.399 395.8 564.925 396.094 C 572.688 386.867 580.53 377.707 588.45 368.615 C 695.577 249.401 845.314 177.132 1005.29 167.427 z"/>
<path transform="translate(0,0)" fill="rgb(254,254,254)" d="M 591.685 461.136 C 662.392 365.552 749.01 297.467 861.648 257.264 C 971.345 217.819 1091.51 218.745 1200.58 259.875 C 1216 265.602 1231.1 272.157 1245.82 279.511 C 1253 283.156 1277.19 298.125 1282.62 298.404 C 1412.44 304.952 1574.9 348.765 1623.51 485.438 C 1644.62 544.769 1639.55 619.407 1612.5 676.069 C 1598.44 695.462 1581.57 714.036 1565.12 731.415 C 1560.02 736.802 1533.9 759.69 1531.69 763.168 C 1530.93 768.057 1515.45 779.792 1510.98 784.498 C 1506.94 788.745 1501.73 794.273 1497.56 798.477 C 1503.18 805.852 1515.04 824.507 1521.37 827.953 C 1528.1 828.072 1541.05 810.657 1552.85 808.32 C 1542.74 817.625 1523.4 830.862 1511.86 838.626 C 1452.63 878.479 1389.69 912.385 1320.93 932.246 C 1388.36 874.688 1466.08 803.03 1473.66 709.882 C 1487.17 543.928 1306.45 480.742 1173.07 472.851 C 967.449 460.687 746.088 511.362 584.117 642.39 C 534.079 683.204 482.127 750.724 477.839 815.983 C 470.125 933.414 597.137 998.185 693.42 1023.25 C 681.196 1025.68 602.684 1041.34 594.24 1040.83 C 495.016 1056.51 369.432 1060.95 275.922 1013.11 C 170.256 959.051 127.825 807.795 223.72 723.542 C 247.448 702.695 270.326 693.809 300.645 685.16 C 312.889 590.611 372.944 494.377 468.25 467.278 C 512.611 454.665 547.201 456.804 591.685 461.136 z"/>
<path transform="translate(0,0)" fill="rgb(103,112,117)" d="M 701.04 431.587 C 883.605 262.84 1186.7 271.773 1376.38 425.151 C 1388.56 435.003 1398.93 446.439 1410.17 457.301 C 1389.99 420.798 1353.42 370.225 1319.79 346.047 C 1324.7 347.216 1329.53 347.86 1334.52 348.496 C 1392.46 355.878 1455.28 372.11 1502.31 408.62 C 1544.97 441.148 1572.52 489.679 1578.57 542.988 C 1590.56 641.424 1552.13 721.264 1493.4 795.927 C 1506.32 785.677 1518.64 773.108 1531.69 763.168 C 1530.93 768.057 1515.45 779.792 1510.98 784.498 C 1506.94 788.745 1501.73 794.273 1497.56 798.477 C 1503.18 805.852 1515.04 824.507 1521.37 827.953 C 1528.1 828.072 1541.05 810.657 1552.85 808.32 C 1542.74 817.625 1523.4 830.862 1511.86 838.626 C 1452.63 878.479 1389.69 912.385 1320.93 932.246 C 1388.36 874.688 1466.08 803.03 1473.66 709.882 C 1487.17 543.928 1306.45 480.742 1173.07 472.851 C 967.449 460.687 746.088 511.362 584.117 642.39 C 534.079 683.204 482.127 750.724 477.839 815.983 C 470.125 933.414 597.137 998.185 693.42 1023.25 C 681.196 1025.68 602.684 1041.34 594.24 1040.83 C 589.892 1038.3 559.854 1035.59 552.289 1034.51 C 425.362 1016.38 296.602 939.143 318.028 792.453 C 337.645 863.063 374.571 891.309 438.098 920.401 C 414.042 889.994 396.76 847.055 397.274 808.039 C 398.118 743.997 439.817 682.528 485.151 639.554 C 625.221 506.776 846.746 438.653 1036.21 441.43 C 942.958 403.357 838.577 401.544 740.91 422.436 C 727.579 425.288 714.3 428.42 701.04 431.587 z"/>
<path transform="translate(0,0)" fill="rgb(43,133,172)" d="M 917.191 601.425 C 943.098 590.645 1004.14 579.606 1032.43 577.5 C 1032.12 577.636 1031.81 577.772 1031.49 577.908 C 965.723 596.701 902.425 614.951 848.85 659.799 C 801.742 699.232 798.149 736.527 867.843 745.472 C 954.382 756.665 1045.46 728.39 1128.07 765.701 C 1185.08 792.271 1192.78 841.265 1173.42 896.727 C 1158.07 940.681 1136.01 965.818 1110.45 1003.17 C 1084.84 1040.56 1056.3 1077.46 1031.5 1115.04 C 1043.58 1109.69 1058.81 1105.4 1071.6 1101.52 C 1091.27 1095.63 1110.91 1089.61 1130.51 1083.48 C 1164.71 1072.62 1198.96 1062.01 1233.19 1051.18 C 1259.92 1042.73 1287.83 1032.45 1314.52 1024.56 C 1281.19 1058.93 1250.57 1093.21 1218.25 1128.47 L 1051.62 1311.26 C 1032.55 1331.87 1013.72 1352.71 995.162 1373.79 C 983.727 1386.84 969.457 1404.93 957.383 1416.23 C 987.836 1408.86 1023.88 1403.94 1054.99 1397.45 C 1066.76 1394.99 1082.45 1393.48 1093.67 1390.45 L 767.225 1618.82 L 696.276 1668.6 C 689.682 1673.25 667.659 1689.3 662.027 1691.76 C 650.242 1702.87 623.493 1722.68 609.882 1733.39 C 632.898 1697.5 654.927 1660.18 677.149 1623.76 L 791.699 1435.52 C 815.153 1396.73 844.761 1343.88 869.766 1307.48 C 854.135 1314.73 828.001 1323.03 810.95 1329.06 C 774.174 1341.96 737.475 1355.07 700.855 1368.4 C 709.003 1353.34 716.738 1335.53 724.715 1320.03 C 746.396 1277.91 767.108 1235.07 789.034 1193.08 L 916.966 948.404 C 929.435 924.348 942.551 900.565 955.015 876.52 C 957.983 870.795 965.375 855.764 964.586 849.556 C 964.509 849.083 964.431 848.611 964.353 848.139 C 964.148 844.87 963.194 840.909 962.119 837.88 C 951.861 809.003 883.482 811.583 857.503 810.901 C 839.815 810.486 822.139 809.645 804.492 808.379 C 711.428 801.296 637.244 768.011 742.666 685.499 C 795.2 644.382 853.808 620.776 917.191 601.425 z"/>
<path transform="translate(0,0)" fill="rgb(254,254,254)" d="M 917.191 601.425 L 919.507 602.329 C 915.467 605.715 884.325 618.074 875.828 622.102 C 834.247 641.818 755.224 682.88 746.048 731.953 C 744.711 739.104 747.994 750.313 753.213 755.843 C 772.195 775.53 805.948 777.919 831.581 779.614 C 853.652 781.074 878.159 780.033 899.869 780.721 C 952.064 782.375 1049.26 769.564 1010.31 855.22 C 996.058 886.549 977.683 914.653 961.351 944.848 C 951.65 961.975 938.915 987.85 928.459 1003.09 C 950.021 987.361 971.931 972.119 994.172 957.371 C 1009.59 947.123 1028.72 935.118 1043.06 923.663 L 879.907 1172.1 L 840.127 1232.88 C 832.968 1243.86 821.826 1261.9 813.33 1271.26 L 971.461 1209.52 C 989.666 1202.41 1011.18 1195.39 1028.55 1188.1 C 999.356 1224.08 966.086 1271.32 938.626 1309.14 L 764.889 1550.63 L 684.44 1659.76 C 679.557 1666.49 663.947 1685.69 662.027 1691.76 C 650.242 1702.87 623.493 1722.68 609.882 1733.39 C 632.898 1697.5 654.927 1660.18 677.149 1623.76 L 791.699 1435.52 C 815.153 1396.73 844.761 1343.88 869.766 1307.48 C 854.135 1314.73 828.001 1323.03 810.95 1329.06 C 774.174 1341.96 737.475 1355.07 700.855 1368.4 C 709.003 1353.34 716.738 1335.53 724.715 1320.03 C 746.396 1277.91 767.108 1235.07 789.034 1193.08 L 916.966 948.404 C 929.435 924.348 942.551 900.565 955.015 876.52 C 957.983 870.795 965.375 855.764 964.586 849.556 C 964.509 849.083 964.431 848.611 964.353 848.139 C 964.148 844.87 963.194 840.909 962.119 837.88 C 951.861 809.003 883.482 811.583 857.503 810.901 C 839.815 810.486 822.139 809.645 804.492 808.379 C 711.428 801.296 637.244 768.011 742.666 685.499 C 795.2 644.382 853.808 620.776 917.191 601.425 z"/>
<path transform="translate(0,0)" fill="rgb(43,133,172)" d="M 1637.99 389.855 C 1731.56 420.377 1804.47 463.191 1852.03 553.81 C 1888 622.343 1895.33 717.941 1871.13 791.097 C 1828.24 920.749 1657.02 1028.5 1541.87 1085.96 C 1495.13 1108.79 1446.7 1127.97 1397.01 1143.35 C 1378.68 1149.12 1357.7 1155.65 1338.76 1158.9 C 1357.84 1150.33 1377.68 1142.51 1397.06 1134.38 C 1460.42 1107.81 1519.23 1075.14 1577.45 1038.76 C 1692.83 966.653 1800.3 866.239 1825.76 726.78 C 1827.63 716.543 1829.12 706.035 1830.7 695.722 C 1804.51 747.966 1763.49 792.122 1718.09 828.545 C 1702.18 841.31 1685.11 852.012 1669.21 864.124 C 1697.69 829.662 1722.14 799.755 1742.08 759.852 C 1775.95 692.121 1785.21 615.459 1751.06 545.955 C 1746.25 536.169 1739.91 526.726 1735.35 516.881 C 1735.83 529.768 1733.52 543.124 1731.48 555.799 C 1720.32 625.262 1678.8 687.614 1631.77 738.402 C 1619.82 751.311 1566.45 800.651 1552.85 808.32 C 1541.05 810.657 1528.1 828.072 1521.37 827.953 C 1515.04 824.507 1503.18 805.852 1497.56 798.477 C 1501.73 794.273 1506.94 788.745 1510.98 784.498 C 1515.45 779.792 1530.93 768.057 1531.69 763.168 C 1533.9 759.69 1560.02 736.802 1565.12 731.415 C 1581.57 714.036 1598.44 695.462 1612.5 676.069 C 1618.9 674.777 1639.93 646.211 1644.3 639.039 C 1695.96 554.315 1699.45 469.364 1637.99 389.855 z"/>
</svg>