<?xml version="1.0" encoding="UTF-8"?>
<!DOCTYPE svg PUBLIC "-//W3C//DTD SVG 1.1//EN" "http://www.w3.org/Graphics/SVG/1.1/DTD/svg11.dtd">
<svg xmlns="http://www.w3.org/2000/svg" version="1.1" width="1024px" height="1024px" style="shape-rendering:geometricPrecision; text-rendering:geometricPrecision; image-rendering:optimizeQuality; fill-rule:evenodd; clip-rule:evenodd" xmlns:xlink="http://www.w3.org/1999/xlink">
<g><path style="opacity:0.999" fill="#040505" d="M 649.5,234.5 C 651.246,235.218 651.912,236.218 651.5,237.5C 653.071,236.691 654.738,236.357 656.5,236.5C 672.838,240.169 688.171,246.336 702.5,255C 727.141,258.048 750.474,265.215 772.5,276.5C 772.821,278.048 773.821,278.715 775.5,278.5C 791.705,287.116 805.372,298.782 816.5,313.5C 816.427,315.027 817.094,316.027 818.5,316.5C 830.511,332.846 837.844,351.18 840.5,371.5C 841.327,384.482 841.661,397.482 841.5,410.5C 838.95,436.928 828.783,459.928 811,479.5C 758.091,532.383 694.925,567.216 621.5,584C 605.332,587.45 589.165,589.617 573,590.5C 562.633,601.698 552.133,612.698 541.5,623.5C 540.711,623.783 540.044,624.283 539.5,625C 541.712,625.789 543.712,625.622 545.5,624.5C 561.082,621.941 576.749,619.941 592.5,618.5C 599.372,618.287 606.206,617.62 613,616.5C 614.385,616.514 615.551,616.848 616.5,617.5C 515.313,684.019 414.146,750.685 313,817.5C 342.406,762.701 372.906,708.368 404.5,654.5C 404,654.167 403.5,653.833 403,653.5C 389.632,658.937 376.132,663.937 362.5,668.5C 360.517,668.843 359.183,668.176 358.5,666.5C 373.447,633.607 388.114,600.607 402.5,567.5C 397.948,566.943 393.615,565.943 389.5,564.5C 386.781,563.087 383.781,562.42 380.5,562.5C 364.342,559.802 348.342,556.469 332.5,552.5C 330.162,550.96 327.495,550.294 324.5,550.5C 319.041,550.008 313.708,549.008 308.5,547.5C 306.162,545.96 303.495,545.294 300.5,545.5C 281.762,543.652 263.428,539.819 245.5,534C 234.631,529.925 224.965,524.091 216.5,516.5C 215.647,514.107 213.981,512.774 211.5,512.5C 183.793,485.166 175.96,452.832 188,415.5C 197.305,395.528 211.972,380.861 232,371.5C 240.219,340.866 257.386,316.699 283.5,299C 303.233,288.056 324.233,283.389 346.5,285C 360.431,267.394 376.764,252.56 395.5,240.5C 397.027,240.573 398.027,239.906 398.5,238.5C 413.565,228.135 429.898,220.135 447.5,214.5C 452.165,213.943 456.498,212.61 460.5,210.5C 462.905,209.232 465.572,208.565 468.5,208.5C 471.495,208.706 474.162,208.04 476.5,206.5C 476.833,206.5 477.167,206.5 477.5,206.5C 481.79,206.802 485.79,206.136 489.5,204.5C 531.712,199.424 571.378,207.258 608.5,228C 622.367,229.195 636.033,231.361 649.5,234.5 Z"/></g>
<g><path style="opacity:0.827" fill="#515151" d="M 489.5,204.5 C 485.79,206.136 481.79,206.802 477.5,206.5C 481.295,205.383 485.295,204.717 489.5,204.5 Z"/></g>
<g><path style="opacity:0.765" fill="#5a5a5a" d="M 476.5,206.5 C 474.162,208.04 471.495,208.706 468.5,208.5C 470.905,207.232 473.572,206.565 476.5,206.5 Z"/></g>
<g><path style="opacity:0.788" fill="#525252" d="M 460.5,210.5 C 456.498,212.61 452.165,213.943 447.5,214.5C 451.502,212.39 455.835,211.057 460.5,210.5 Z"/></g>
<g><path style="opacity:1" fill="#fafafb" d="M 723.5,385.5 C 716.104,395.59 707.771,404.924 698.5,413.5C 696.167,415.167 694.167,417.167 692.5,419.5C 688.578,421.915 685.078,424.915 682,428.5C 693.481,413.209 702.148,396.209 708,377.5C 719.739,318.837 696.239,283.337 637.5,271C 631.509,269.834 625.509,269.167 619.5,269C 626.707,274.54 632.874,281.04 638,288.5C 642.167,293.857 645.5,299.524 648,305.5C 618.518,278.18 583.685,261.68 543.5,256C 495.067,248.581 450.733,258.581 410.5,286C 405.981,289.429 401.648,293.096 397.5,297C 409.707,294.628 422.041,292.628 434.5,291C 462.4,288.564 489.4,292.23 515.5,302C 443.88,301.426 380.213,323.093 324.5,367C 313.842,376.316 304.675,386.816 297,398.5C 282.07,424.153 283.236,448.986 300.5,473C 279.122,466.289 264.955,452.122 258,430.5C 255.277,452.993 262.11,472.16 278.5,488C 301.168,506.184 327.168,515.851 356.5,517C 355.263,517.232 354.263,517.732 353.5,518.5C 324.392,522.894 295.392,522.394 266.5,517C 224.614,506.357 204.114,479.524 205,436.5C 211.158,412.175 226.324,396.508 250.5,389.5C 254.992,364.01 266.659,342.51 285.5,325C 300.469,313.509 317.469,307.676 336.5,307.5C 343.169,308.122 349.835,308.289 356.5,308C 399.339,251.416 456.339,224.082 527.5,226C 554.373,228.299 579.373,236.299 602.5,250C 630.866,251.206 657.866,257.873 683.5,270C 728.928,297.108 742.261,335.608 723.5,385.5 Z"/></g>
<g><path style="opacity:0.948" fill="#4a4a4a" d="M 649.5,234.5 C 652.067,234.721 654.401,235.388 656.5,236.5C 654.738,236.357 653.071,236.691 651.5,237.5C 651.912,236.218 651.246,235.218 649.5,234.5 Z"/></g>
<g><path style="opacity:0.686" fill="#6b6b6b" d="M 398.5,238.5 C 398.027,239.906 397.027,240.573 395.5,240.5C 395.973,239.094 396.973,238.427 398.5,238.5 Z"/></g>
<g><path style="opacity:0.796" fill="#6c6c6c" d="M 772.5,276.5 C 773.71,276.932 774.71,277.599 775.5,278.5C 773.821,278.715 772.821,278.048 772.5,276.5 Z"/></g>
<g><path style="opacity:1" fill="#666f75" d="M 692.5,419.5 C 692.938,419.435 693.272,419.601 693.5,420C 692.833,421 692.167,422 691.5,423C 691.704,425.621 691.704,428.455 691.5,431.5C 690.022,431.238 688.689,431.571 687.5,432.5C 689.545,434.051 691.045,436.051 692,438.5C 693.356,437.62 694.856,437.286 696.5,437.5C 673.839,455.665 648.506,468.832 620.5,477C 633.728,465.44 645.895,452.94 657,439.5C 685.643,394.137 677.143,357.637 631.5,330C 609.531,320.234 586.531,314.568 562.5,313C 490.151,309 423.818,326.667 363.5,366C 353.012,374.489 343.179,383.655 334,393.5C 326.259,403.048 320.593,413.715 317,425.5C 312.351,448.217 318.518,467.384 335.5,483C 351.956,496.561 370.622,505.895 391.5,511C 378.881,513.824 366.214,516.324 353.5,518.5C 354.263,517.732 355.263,517.232 356.5,517C 327.168,515.851 301.168,506.184 278.5,488C 262.11,472.16 255.277,452.993 258,430.5C 264.955,452.122 279.122,466.289 300.5,473C 283.236,448.986 282.07,424.153 297,398.5C 304.675,386.816 313.842,376.316 324.5,367C 380.213,323.093 443.88,301.426 515.5,302C 489.4,292.23 462.4,288.564 434.5,291C 422.041,292.628 409.707,294.628 397.5,297C 401.648,293.096 405.981,289.429 410.5,286C 450.733,258.581 495.067,248.581 543.5,256C 583.685,261.68 618.518,278.18 648,305.5C 645.5,299.524 642.167,293.857 638,288.5C 632.874,281.04 626.707,274.54 619.5,269C 625.509,269.167 631.509,269.834 637.5,271C 696.239,283.337 719.739,318.837 708,377.5C 702.148,396.209 693.481,413.209 682,428.5C 685.078,424.915 688.578,421.915 692.5,419.5 Z"/></g>
<g><path style="opacity:0.553" fill="#6c6c6c" d="M 816.5,313.5 C 817.906,313.973 818.573,314.973 818.5,316.5C 817.094,316.027 816.427,315.027 816.5,313.5 Z"/></g>
<g><path style="opacity:1" fill="#2b84ab" d="M 785.5,312.5 C 811.908,336.525 823.741,366.525 821,402.5C 819.331,418.503 814.664,433.503 807,447.5C 803.346,452.982 799.179,457.982 794.5,462.5C 793.5,462.5 792.5,462.5 791.5,462.5C 790.59,457.666 791.923,453.666 795.5,450.5C 792.541,449.24 788.875,449.24 784.5,450.5C 785.572,446.041 787.905,445.041 791.5,447.5C 792.578,445.525 792.245,443.692 790.5,442C 791.93,437.937 793.097,433.771 794,429.5C 795.194,427.475 796.694,427.141 798.5,428.5C 798.833,427.833 799.167,427.167 799.5,426.5C 798.833,424.833 798.167,423.167 797.5,421.5C 798.509,416.464 799.676,411.464 801,406.5C 804.044,405.197 805.211,402.864 804.5,399.5C 803.5,399.5 802.5,399.5 801.5,399.5C 801.663,397.143 801.497,394.81 801,392.5C 800.586,392.043 800.086,391.709 799.5,391.5C 798.376,392.914 797.376,394.414 796.5,396C 797.756,396.417 798.423,397.25 798.5,398.5C 785.8,419.035 769.467,436.202 749.5,450C 747.945,451.289 746.279,451.956 744.5,452C 763.327,432.848 775.16,410.015 780,383.5C 781.889,366.583 779.056,350.583 771.5,335.5C 771.808,333.076 771.474,330.743 770.5,328.5C 768.742,327.872 767.242,326.872 766,325.5C 764.316,327.351 762.483,329.018 760.5,330.5C 761.326,331.451 761.492,332.451 761,333.5C 759.667,334.167 758.333,334.833 757,335.5C 757.227,343.08 757.393,350.58 757.5,358C 757.397,359.561 757.063,361.061 756.5,362.5C 755.833,363.833 755.167,363.833 754.5,362.5C 753.702,355.55 753.202,348.55 753,341.5C 752.333,340.167 751.667,340.167 751,341.5C 750.072,328.842 749.238,316.175 748.5,303.5C 747.692,303.192 747.025,302.692 746.5,302C 748.891,301.713 751.224,301.213 753.5,300.5C 754.711,299.726 754.711,298.893 753.5,298C 756.167,297.333 758.833,297.333 761.5,298C 762.641,298.741 762.641,299.575 761.5,300.5C 759.833,301.167 758.167,301.833 756.5,302.5C 757.5,302.833 758.5,303.167 759.5,303.5C 762.71,302.056 766.043,301.556 769.5,302C 771.804,304.641 774.138,307.308 776.5,310C 779.375,311.302 782.375,312.135 785.5,312.5 Z"/></g>
<g><path style="opacity:1" fill="#2f84a6" d="M 785.5,312.5 C 782.375,312.135 779.375,311.302 776.5,310C 774.138,307.308 771.804,304.641 769.5,302C 766.043,301.556 762.71,302.056 759.5,303.5C 758.5,303.167 757.5,302.833 756.5,302.5C 758.167,301.833 759.833,301.167 761.5,300.5C 762.641,299.575 762.641,298.741 761.5,298C 758.833,297.333 756.167,297.333 753.5,298C 754.711,298.893 754.711,299.726 753.5,300.5C 751.224,301.213 748.891,301.713 746.5,302C 747.025,302.692 747.692,303.192 748.5,303.5C 749.238,316.175 750.072,328.842 751,341.5C 751.667,340.167 752.333,340.167 753,341.5C 753.202,348.55 753.702,355.55 754.5,362.5C 755.167,363.833 755.833,363.833 756.5,362.5C 757.063,361.061 757.397,359.561 757.5,358C 757.393,350.58 757.227,343.08 757,335.5C 758.333,334.833 759.667,334.167 761,333.5C 761.492,332.451 761.326,331.451 760.5,330.5C 762.483,329.018 764.316,327.351 766,325.5C 767.242,326.872 768.742,327.872 770.5,328.5C 771.474,330.743 771.808,333.076 771.5,335.5C 770.115,334.426 768.949,333.093 768,331.5C 766.353,345.071 762.686,358.071 757,370.5C 756.303,372.584 755.136,374.251 753.5,375.5C 753.209,372.963 753.042,370.296 753,367.5C 752.667,367.167 752.333,366.833 752,366.5C 751.517,367.448 751.351,368.448 751.5,369.5C 749.396,369.799 747.396,369.466 745.5,368.5C 748.045,364.383 747.711,360.383 744.5,356.5C 743.817,356.863 743.15,357.196 742.5,357.5C 753.382,331.088 750.049,306.755 732.5,284.5C 747.318,288.186 761.318,294.352 774.5,303C 778.359,306.032 782.026,309.198 785.5,312.5 Z"/></g>
<g><path style="opacity:1" fill="#2d83aa" d="M 753.5,375.5 C 746.256,389.974 736.59,402.641 724.5,413.5C 722.956,413.703 721.622,414.37 720.5,415.5C 720.167,415 719.833,414.5 719.5,414C 720.841,409.828 723.174,406.328 726.5,403.5C 725.311,402.571 723.978,402.238 722.5,402.5C 721.889,405.721 720.722,408.721 719,411.5C 715.84,413.01 715.673,414.843 718.5,417C 718.167,417.5 717.833,418 717.5,418.5C 716.008,416.834 714.175,415.834 712,415.5C 708.489,416.706 705.322,418.206 702.5,420C 703.167,419 703.833,418 704.5,417C 703.409,414.936 703.242,412.769 704,410.5C 708.534,406.301 712.701,401.801 716.5,397C 717.448,396.517 718.448,396.351 719.5,396.5C 719.167,392.167 721.167,390.167 725.5,390.5C 725.567,389.041 725.234,387.708 724.5,386.5C 732.182,377.831 738.182,368.164 742.5,357.5C 743.15,357.196 743.817,356.863 744.5,356.5C 747.711,360.383 748.045,364.383 745.5,368.5C 747.396,369.466 749.396,369.799 751.5,369.5C 751.351,368.448 751.517,367.448 752,366.5C 752.333,366.833 752.667,367.167 753,367.5C 753.042,370.296 753.209,372.963 753.5,375.5 Z"/></g>
<g><path style="opacity:0.569" fill="#5c5c5c" d="M 840.5,371.5 C 842.022,378.939 842.689,386.606 842.5,394.5C 842.499,400.011 842.166,405.344 841.5,410.5C 841.661,397.482 841.327,384.482 840.5,371.5 Z"/></g>
<g><path style="opacity:1" fill="#f7f9f9" d="M 473.5,359.5 C 476.097,359.721 476.097,360.221 473.5,361C 456.325,366.708 440.658,375.041 426.5,386C 420.565,390.934 415.732,396.767 412,403.5C 410.328,409.658 412.162,414.491 417.5,418C 421.95,420.261 426.617,421.928 431.5,423C 451.47,424.23 471.47,424.897 491.5,425C 497.745,425.376 503.245,427.543 508,431.5C 509.789,436.78 509.789,442.114 508,447.5C 499.009,465.485 489.509,483.152 479.5,500.5C 479.833,500.833 480.167,501.167 480.5,501.5C 491.659,493.42 502.993,485.587 514.5,478C 515.332,477.312 515.998,477.479 516.5,478.5C 490.167,518.5 463.833,558.5 437.5,598.5C 462.265,589.735 487.098,580.401 512,570.5C 468.544,630.697 425.044,691.03 381.5,751.5C 376.162,756 370.662,760.333 365,764.5C 394.255,714.686 424.088,665.02 454.5,615.5C 454.167,615.167 453.833,614.833 453.5,614.5C 433.917,621.468 414.584,628.135 395.5,634.5C 426.202,573.759 457.368,513.426 489,453.5C 490.969,443.459 486.802,437.959 476.5,437C 460.872,435.64 445.206,434.64 429.5,434C 418.073,433.478 407.407,430.478 397.5,425C 392.741,420.509 391.241,415.009 393,408.5C 400.156,398.346 408.989,389.846 419.5,383C 436.419,372.708 454.419,364.874 473.5,359.5 Z"/></g>
<g><path style="opacity:1" fill="#357e9c" d="M 723.5,385.5 C 723.5,386.167 723.833,386.5 724.5,386.5C 725.234,387.708 725.567,389.041 725.5,390.5C 721.167,390.167 719.167,392.167 719.5,396.5C 718.448,396.351 717.448,396.517 716.5,397C 712.701,401.801 708.534,406.301 704,410.5C 703.242,412.769 703.409,414.936 704.5,417C 703.833,418 703.167,419 702.5,420C 705.322,418.206 708.489,416.706 712,415.5C 714.175,415.834 716.008,416.834 717.5,418.5C 717.833,418 718.167,417.5 718.5,417C 715.673,414.843 715.84,413.01 719,411.5C 720.722,408.721 721.889,405.721 722.5,402.5C 723.978,402.238 725.311,402.571 726.5,403.5C 723.174,406.328 720.841,409.828 719.5,414C 719.833,414.5 720.167,415 720.5,415.5C 721.622,414.37 722.956,413.703 724.5,413.5C 719.67,419.163 714.337,424.33 708.5,429C 706.922,430.094 705.255,430.928 703.5,431.5C 699.564,431.046 697.397,428.712 697,424.5C 696.116,420.567 696.616,416.901 698.5,413.5C 707.771,404.924 716.104,395.59 723.5,385.5 Z"/></g>
<g><path style="opacity:1" fill="#547484" d="M 698.5,413.5 C 696.616,416.901 696.116,420.567 697,424.5C 697.397,428.712 699.564,431.046 703.5,431.5C 701.781,434.219 699.447,436.219 696.5,437.5C 694.856,437.286 693.356,437.62 692,438.5C 691.045,436.051 689.545,434.051 687.5,432.5C 688.689,431.571 690.022,431.238 691.5,431.5C 691.704,428.455 691.704,425.621 691.5,423C 692.167,422 692.833,421 693.5,420C 693.272,419.601 692.938,419.435 692.5,419.5C 694.167,417.167 696.167,415.167 698.5,413.5 Z"/></g>
<g><path style="opacity:1" fill="#2f81a6" d="M 794.5,462.5 C 783.985,475.514 771.985,487.014 758.5,497C 718.779,526.707 674.779,547.373 626.5,559C 670.591,542.458 710.925,519.458 747.5,490C 766.252,473.972 780.752,454.805 791,432.5C 796.209,420.997 799.209,408.997 800,396.5C 799.722,397.416 799.222,398.082 798.5,398.5C 798.423,397.25 797.756,396.417 796.5,396C 797.376,394.414 798.376,392.914 799.5,391.5C 800.086,391.709 800.586,392.043 801,392.5C 801.497,394.81 801.663,397.143 801.5,399.5C 802.5,399.5 803.5,399.5 804.5,399.5C 805.211,402.864 804.044,405.197 801,406.5C 799.676,411.464 798.509,416.464 797.5,421.5C 798.167,423.167 798.833,424.833 799.5,426.5C 799.167,427.167 798.833,427.833 798.5,428.5C 796.694,427.141 795.194,427.475 794,429.5C 793.097,433.771 791.93,437.937 790.5,442C 792.245,443.692 792.578,445.525 791.5,447.5C 787.905,445.041 785.572,446.041 784.5,450.5C 788.875,449.24 792.541,449.24 795.5,450.5C 791.923,453.666 790.59,457.666 791.5,462.5C 792.5,462.5 793.5,462.5 794.5,462.5 Z"/></g>
<g><path style="opacity:1" fill="#2d85ab" d="M 381.5,751.5 C 425.044,691.03 468.544,630.697 512,570.5C 487.098,580.401 462.265,589.735 437.5,598.5C 463.833,558.5 490.167,518.5 516.5,478.5C 515.998,477.479 515.332,477.312 514.5,478C 502.993,485.587 491.659,493.42 480.5,501.5C 480.167,501.167 479.833,500.833 479.5,500.5C 489.509,483.152 499.009,465.485 508,447.5C 509.789,442.114 509.789,436.78 508,431.5C 503.245,427.543 497.745,425.376 491.5,425C 471.47,424.897 451.47,424.23 431.5,423C 426.617,421.928 421.95,420.261 417.5,418C 412.162,414.491 410.328,409.658 412,403.5C 415.732,396.767 420.565,390.934 426.5,386C 440.658,375.041 456.325,366.708 473.5,361C 476.097,360.221 476.097,359.721 473.5,359.5C 485.734,355.111 498.4,352.611 511.5,352C 485.123,357.272 461.956,368.772 442,386.5C 440.333,389.167 438.667,391.833 437,394.5C 435.272,403.119 438.772,408.285 447.5,410C 451.819,410.76 456.152,411.427 460.5,412C 480.167,412.022 499.834,412.022 519.5,412C 532.935,412.107 545.269,415.774 556.5,423C 567.077,431.394 570.91,442.228 568,455.5C 564.761,468.977 559.094,481.31 551,492.5C 540.333,507.167 529.667,521.833 519,536.5C 517.642,538.859 516.642,541.193 516,543.5C 548.729,532.699 581.562,522.533 614.5,513C 573.333,558.167 532.167,603.333 491,648.5C 488.572,650.86 489.072,651.86 492.5,651.5C 506.747,648.126 521.081,645.626 535.5,644C 484.287,680.053 432.953,715.887 381.5,751.5 Z"/></g>
<g><path style="opacity:0.875" fill="#595959" d="M 211.5,512.5 C 213.981,512.774 215.647,514.107 216.5,516.5C 214.251,515.92 212.585,514.587 211.5,512.5 Z"/></g>
<g><path style="opacity:0.576" fill="#616161" d="M 300.5,545.5 C 303.495,545.294 306.162,545.96 308.5,547.5C 305.572,547.435 302.905,546.768 300.5,545.5 Z"/></g>
<g><path style="opacity:0.584" fill="#5f5f5f" d="M 324.5,550.5 C 327.495,550.294 330.162,550.96 332.5,552.5C 329.572,552.435 326.905,551.768 324.5,550.5 Z"/></g>
<g><path style="opacity:0.78" fill="#5d5d5d" d="M 380.5,562.5 C 383.781,562.42 386.781,563.087 389.5,564.5C 386.219,564.58 383.219,563.913 380.5,562.5 Z"/></g>
<g><path style="opacity:0.102" fill="#c3c3c3" d="M 616.5,615.5 C 617.386,614.224 618.386,614.224 619.5,615.5C 619.376,616.107 619.043,616.44 618.5,616.5C 618.158,615.662 617.492,615.328 616.5,615.5 Z"/></g>
<g><path style="opacity:0.804" fill="#585858" d="M 616.5,615.5 C 617.492,615.328 618.158,615.662 618.5,616.5C 617.833,616.833 617.167,617.167 616.5,617.5C 615.551,616.848 614.385,616.514 613,616.5C 606.206,617.62 599.372,618.287 592.5,618.5C 600.283,616.86 608.283,615.86 616.5,615.5 Z"/></g>
<g><path style="opacity:0.2" fill="#828282" d="M 541.5,623.5 C 542.568,624.434 543.901,624.768 545.5,624.5C 543.712,625.622 541.712,625.789 539.5,625C 540.044,624.283 540.711,623.783 541.5,623.5 Z"/></g>
<g><path style="opacity:0.843" fill="#525252" d="M 358.5,666.5 C 359.183,668.176 360.517,668.843 362.5,668.5C 360.36,669.905 358.026,670.738 355.5,671C 356.399,669.348 357.399,667.848 358.5,666.5 Z"/></g>
</svg>
